<svg width="400" height="400" viewBox="0 0 400 400" fill="none" xmlns="http://www.w3.org/2000/svg">
<path d="M5.31124e-08 400V133.14C-0.000382755 122.634 2.06856 112.231 6.08869 102.525C10.1088 92.8184 16.0014 83.999 23.43 76.57L76.57 23.43C83.999 16.0014 92.8184 10.1088 102.525 6.08869C112.231 2.06856 122.634 -0.000382755 133.14 5.31124e-08L200 5.31124e-08C253.043 5.31124e-08 303.914 21.0714 341.421 58.5786C378.929 96.0859 400 146.957 400 200C400 253.043 378.929 303.914 341.421 341.421C303.914 378.929 253.043 400 200 400H5.31124e-08Z" fill="#991844"/>
<path fill-rule="evenodd" clip-rule="evenodd" d="M202.659 166.191C200.318 166.191 198.357 165.463 196.775 164.008C195.257 162.49 194.498 160.624 194.498 158.41C194.498 156.196 195.257 154.361 196.775 152.906C198.357 151.388 200.318 150.629 202.659 150.629C204.999 150.629 206.929 151.388 208.447 152.906C210.028 154.361 210.819 156.196 210.819 158.41C210.819 160.624 210.028 162.49 208.447 164.008C206.929 165.463 204.999 166.191 202.659 166.191ZM209.206 172.658V225.226H195.921V172.658H209.206ZM318.364 177.873C314.505 173.887 309.444 171.895 303.182 171.895C299.892 171.895 296.856 172.559 294.072 173.887C291.352 175.152 289.107 176.924 287.335 179.201V172.654H274.051V225.222H287.335V196.186C287.335 192.011 288.379 188.816 290.467 186.602C292.617 184.325 295.527 183.186 299.196 183.186C302.802 183.186 305.649 184.325 307.736 186.602C309.824 188.816 310.868 192.011 310.868 196.186V225.222H324.152V194.383C324.152 187.298 322.223 181.795 318.364 177.873ZM148.887 305.558C146.546 305.558 144.585 304.83 143.004 303.375C141.485 301.857 140.726 299.991 140.726 297.777C140.726 295.563 141.485 293.728 143.004 292.273C144.585 290.755 146.546 289.996 148.887 289.996C151.227 289.996 153.157 290.755 154.675 292.273C156.256 293.728 157.047 295.563 157.047 297.777C157.047 299.991 156.256 301.857 154.675 303.375C153.157 304.83 151.227 305.558 148.887 305.558ZM155.434 312.025V364.594H142.15V312.025H155.434ZM116.362 365.37C112.06 365.37 108.201 364.611 104.785 363.093C101.369 361.512 98.649 359.392 96.6247 356.735C94.6636 354.079 93.5882 351.137 93.3984 347.911H106.778C107.031 349.935 108.011 351.611 109.719 352.94C111.491 354.268 113.673 354.933 116.267 354.933C118.797 354.933 120.758 354.426 122.15 353.414C123.605 352.402 124.332 351.105 124.332 349.524C124.332 347.816 123.447 346.551 121.675 345.728C119.967 344.843 117.216 343.894 113.42 342.882C109.498 341.933 106.272 340.952 103.741 339.94C101.274 338.928 99.1234 337.378 97.2889 335.29C95.5176 333.203 94.632 330.388 94.632 326.845C94.632 323.935 95.4544 321.279 97.0991 318.875C98.8071 316.471 101.211 314.573 104.311 313.181C107.474 311.79 111.174 311.094 115.413 311.094C121.675 311.094 126.673 312.675 130.405 315.838C134.138 318.938 136.193 323.145 136.573 328.458H123.858C123.668 326.371 122.782 324.726 121.201 323.524C119.683 322.259 117.627 321.626 115.033 321.626C112.629 321.626 110.763 322.069 109.435 322.955C108.17 323.841 107.537 325.074 107.537 326.656C107.537 328.427 108.423 329.787 110.194 330.736C111.965 331.621 114.717 332.539 118.449 333.488C122.245 334.436 125.376 335.417 127.843 336.429C130.31 337.441 132.43 339.023 134.201 341.174C136.035 343.261 136.984 346.045 137.047 349.524C137.047 352.56 136.193 355.28 134.485 357.684C132.841 360.088 130.437 361.986 127.274 363.378C124.174 364.706 120.537 365.37 116.362 365.37ZM158.553 223.804C161.969 225.322 165.828 226.081 170.129 226.081C174.304 226.081 177.942 225.417 181.041 224.089C184.204 222.697 186.608 220.799 188.253 218.395C189.961 215.991 190.815 213.271 190.815 210.235C190.752 206.756 189.803 203.972 187.968 201.885C186.197 199.734 184.078 198.152 181.611 197.14C179.144 196.128 176.012 195.147 172.217 194.199C168.484 193.25 165.733 192.332 163.961 191.447C162.19 190.498 161.304 189.138 161.304 187.367C161.304 185.785 161.937 184.551 163.202 183.666C164.531 182.78 166.397 182.337 168.801 182.337C171.394 182.337 173.45 182.97 174.969 184.235C176.55 185.437 177.436 187.082 177.625 189.169H190.341C189.961 183.856 187.905 179.649 184.173 176.549C180.44 173.386 175.443 171.805 169.18 171.805C164.942 171.805 161.241 172.501 158.078 173.892C154.979 175.284 152.575 177.182 150.867 179.586C149.222 181.989 148.4 184.646 148.4 187.556C148.4 191.099 149.285 193.914 151.056 196.001C152.891 198.089 155.042 199.639 157.509 200.651C160.039 201.663 163.266 202.644 167.188 203.593C170.983 204.605 173.735 205.554 175.443 206.439C177.214 207.262 178.1 208.527 178.1 210.235C178.1 211.816 177.372 213.113 175.917 214.125C174.526 215.137 172.565 215.643 170.034 215.643C167.441 215.643 165.258 214.979 163.487 213.651C161.779 212.322 160.798 210.646 160.545 208.622H147.166C147.356 211.848 148.431 214.789 150.392 217.446C152.417 220.103 155.137 222.222 158.553 223.804ZM144.112 197.804C144.112 199.702 143.986 201.41 143.732 202.928H105.302C105.619 206.724 106.947 209.697 109.288 211.848C111.628 213.999 114.507 215.074 117.923 215.074C122.857 215.074 126.368 212.955 128.455 208.717H142.784C141.265 213.777 138.355 217.952 134.054 221.242C129.752 224.468 124.47 226.081 118.207 226.081C113.147 226.081 108.592 224.974 104.543 222.76C100.558 220.483 97.4266 217.288 95.1492 213.176C92.9352 209.064 91.8281 204.32 91.8281 198.943C91.8281 193.503 92.9352 188.727 95.1492 184.615C97.3633 180.503 100.463 177.34 104.448 175.126C108.434 172.912 113.02 171.805 118.207 171.805C123.205 171.805 127.665 172.88 131.587 175.031C135.572 177.182 138.64 180.25 140.791 184.235C143.005 188.157 144.112 192.68 144.112 197.804ZM36.4458 183.613C34.3582 187.725 33.3145 192.438 33.3145 197.752C33.3145 203.129 34.3582 207.905 36.4458 212.08C38.5966 216.192 41.5065 219.386 45.1756 221.664C48.8446 223.941 52.8932 225.08 57.3214 225.08C61.2435 225.08 64.6911 224.289 67.6643 222.708C70.6375 221.126 72.9465 219.038 74.5912 216.445V224.226H88.0655V154.008H74.5912V178.964C72.7567 176.497 70.2896 174.535 67.1899 173.081C64.0902 171.562 60.8323 170.803 57.4163 170.803C52.9249 170.803 48.8446 171.91 45.1756 174.124C41.5065 176.338 38.5966 179.501 36.4458 183.613ZM88.7412 338.404C88.6893 331.312 85.8498 324.522 80.8315 319.504C75.7666 314.439 68.8971 311.594 61.7342 311.594C54.5714 311.594 47.7018 314.439 42.6369 319.504C37.572 324.569 34.7266 331.439 34.7266 338.601H47.8577C47.8577 334.921 49.3197 331.392 51.922 328.789C54.5244 326.187 58.0539 324.725 61.7342 324.725C65.4145 324.725 68.9441 326.187 71.5464 328.789C74.1488 331.392 75.6108 334.921 75.6108 338.601H75.692V341.583C71.5668 339.116 66.8169 337.782 61.9294 337.782C54.8184 337.782 47.9987 340.607 42.9704 345.635C37.9422 350.663 35.1174 357.483 35.1174 364.594H48.2553C48.2553 360.967 49.6959 357.489 52.2603 354.925C54.8247 352.36 58.3028 350.92 61.9294 350.92C65.556 350.92 69.0341 352.36 71.5985 354.925C74.1629 357.489 75.6036 360.967 75.6036 364.594H88.7415L88.7412 338.404ZM207.832 319.504C212.85 324.522 215.689 331.312 215.741 338.404L215.741 364.594H202.604C202.604 360.967 201.163 357.489 198.599 354.925C196.034 352.36 192.556 350.92 188.929 350.92C185.303 350.92 181.825 352.36 179.26 354.925C176.696 357.489 175.255 360.967 175.255 364.594H162.117C162.117 357.483 164.942 350.663 169.97 345.635C174.999 340.607 181.818 337.782 188.929 337.782C193.817 337.782 198.567 339.116 202.692 341.583V338.601H202.611C202.611 334.921 201.149 331.392 198.546 328.789C195.944 326.187 192.415 324.725 188.734 324.725C185.054 324.725 181.524 326.187 178.922 328.789C176.32 331.392 174.858 334.921 174.858 338.601H161.727C161.727 331.439 164.572 324.569 169.637 319.504C174.702 314.439 181.571 311.594 188.734 311.594C195.897 311.594 202.767 314.439 207.832 319.504ZM237.858 172.254C241.683 172.254 245.045 173.025 247.944 174.567C250.844 176.048 253.127 177.991 254.792 180.397V173.087H267.84V224.724C267.84 229.474 266.884 233.7 264.972 237.401C263.059 241.165 260.19 244.126 256.365 246.285C252.541 248.506 247.914 249.617 242.485 249.617C235.205 249.617 229.221 247.92 224.532 244.527C219.905 241.134 217.283 236.507 216.666 230.646H229.529C230.208 232.99 231.658 234.841 233.879 236.198C236.161 237.617 238.906 238.327 242.114 238.327C245.878 238.327 248.932 237.185 251.276 234.903C253.62 232.682 254.792 229.289 254.792 224.724V216.765C253.127 219.171 250.813 221.176 247.852 222.78C244.952 224.384 241.621 225.186 237.858 225.186C233.539 225.186 229.591 224.076 226.013 221.855C222.435 219.634 219.597 216.518 217.499 212.508C215.463 208.437 214.445 203.779 214.445 198.535C214.445 193.353 215.463 188.757 217.499 184.747C219.597 180.737 222.404 177.652 225.92 175.493C229.498 173.334 233.478 172.254 237.858 172.254ZM147.741 268.404C147.689 261.312 144.85 254.522 139.832 249.504C134.767 244.439 127.897 241.594 120.734 241.594C113.571 241.594 106.702 244.439 101.637 249.504C96.572 254.569 93.7266 261.439 93.7266 268.601H106.858C106.858 264.921 108.32 261.392 110.922 258.789C113.524 256.187 117.054 254.725 120.734 254.725C124.415 254.725 127.944 256.187 130.546 258.789C133.149 261.392 134.611 264.921 134.611 268.601H134.692V271.583C130.567 269.116 125.817 267.782 120.929 267.782C113.818 267.782 106.999 270.607 101.97 275.635C96.9422 280.663 94.1174 287.483 94.1174 294.594H107.255C107.255 290.967 108.696 287.489 111.26 284.925C113.825 282.36 117.303 280.92 120.929 280.92C124.556 280.92 128.034 282.36 130.599 284.925C133.163 287.489 134.604 290.967 134.604 294.594H134.619C135.161 292.046 136.398 289.846 138.332 287.993C140.902 285.525 144.039 284.191 147.742 283.99L147.741 268.404ZM173.35 311.996L202.332 243.047H188.177L174.402 279.812L160.817 243.047H145.902L166.992 294.347L159.319 311.996H173.35ZM48.011 250.66C49.719 248.256 52.0596 246.263 55.0328 244.682C58.0693 243.037 61.5169 242.215 65.3757 242.215C69.8671 242.215 73.9157 243.322 77.5215 245.536C81.1905 247.75 84.0688 250.913 86.1564 255.025C88.3072 259.073 89.3826 263.786 89.3826 269.163C89.3826 274.54 88.3072 279.316 86.1564 283.492C84.0688 287.603 81.1905 290.798 77.5215 293.075C73.9157 295.353 69.8671 296.491 65.3757 296.491C61.5169 296.491 58.1009 295.701 55.1277 294.119C52.2178 292.538 49.8455 290.545 48.011 288.141V311.996H34.7266V243.069H48.011V250.66ZM75.8135 269.163C75.8135 266 75.1493 263.28 73.8208 261.003C72.5556 258.662 70.8476 256.891 68.6968 255.689C66.6093 254.487 64.3319 253.886 61.8648 253.886C59.461 253.886 57.1836 254.519 55.0328 255.784C52.9453 256.986 51.2372 258.757 49.9088 261.098C48.6436 263.438 48.011 266.19 48.011 269.353C48.011 272.516 48.6436 275.268 49.9088 277.608C51.2372 279.949 52.9453 281.752 55.0328 283.017C57.1836 284.219 59.461 284.82 61.8648 284.82C64.3319 284.82 66.6093 284.187 68.6968 282.922C70.8476 281.657 72.5556 279.854 73.8208 277.514C75.1493 275.173 75.8135 272.39 75.8135 269.163ZM72.7883 189.686C74.0535 191.963 74.6861 194.715 74.6861 197.941C74.6861 201.168 74.0535 203.951 72.7883 206.292C71.5231 208.569 69.8151 210.34 67.6643 211.606C65.5135 212.807 63.2045 213.408 60.7374 213.408C58.3336 213.408 56.0562 212.776 53.9054 211.511C51.8178 210.245 50.1098 208.443 48.7814 206.102C47.5162 203.698 46.8836 200.915 46.8836 197.752C46.8836 194.589 47.5162 191.869 48.7814 189.591C50.1098 187.251 51.8178 185.479 53.9054 184.277C55.993 183.076 58.2703 182.475 60.7374 182.475C63.2045 182.475 65.5135 183.107 67.6643 184.372C69.8151 185.574 71.5231 187.346 72.7883 189.686ZM252.942 190.669C254.175 192.89 254.792 195.574 254.792 198.72C254.792 201.866 254.175 204.581 252.942 206.863C251.708 209.084 250.042 210.812 247.944 212.046C245.847 213.218 243.595 213.804 241.189 213.804C238.845 213.804 236.624 213.187 234.526 211.953C232.49 210.719 230.825 208.961 229.529 206.678C228.295 204.334 227.678 201.62 227.678 198.535C227.678 195.45 228.295 192.798 229.529 190.577C230.825 188.294 232.49 186.567 234.526 185.394C236.562 184.222 238.783 183.636 241.189 183.636C243.595 183.636 245.847 184.253 247.944 185.487C250.042 186.659 251.708 188.387 252.942 190.669ZM130.353 194.009C130.29 190.593 129.056 187.873 126.652 185.848C124.249 183.761 121.307 182.717 117.828 182.717C114.538 182.717 111.755 183.729 109.478 185.753C107.263 187.714 105.903 190.466 105.397 194.009H130.353Z" fill="#FCFCFC"/>
</svg>
